<?xml version="1.0" encoding="UTF-8" standalone="no"?>
<!-- Created with Inkscape (http://www.inkscape.org/) -->

<svg
   xmlns:dc="http://purl.org/dc/elements/1.1/"
   xmlns:cc="http://creativecommons.org/ns#"
   xmlns:rdf="http://www.w3.org/1999/02/22-rdf-syntax-ns#"
   xmlns:svg="http://www.w3.org/2000/svg"
   xmlns="http://www.w3.org/2000/svg"
   xmlns:sodipodi="http://sodipodi.sourceforge.net/DTD/sodipodi-0.dtd"
   xmlns:inkscape="http://www.inkscape.org/namespaces/inkscape"
   width="390.5"
   height="68.489998"
   id="svg3528"
   version="1.1"
   inkscape:version="0.48.1 "
   sodipodi:docname="New document 3">
  <defs
     id="defs3530" />
  <sodipodi:namedview
     id="base"
     pagecolor="#ffffff"
     bordercolor="#666666"
     borderopacity="1.0"
     inkscape:pageopacity="0.0"
     inkscape:pageshadow="2"
     inkscape:zoom="2.8"
     inkscape:cx="203.83775"
     inkscape:cy="15.633334"
     inkscape:document-units="px"
     inkscape:current-layer="layer1"
     showgrid="false"
     fit-margin-top="0"
     fit-margin-left="0"
     fit-margin-right="0"
     fit-margin-bottom="0"
     inkscape:window-width="1280"
     inkscape:window-height="720"
     inkscape:window-x="-8"
     inkscape:window-y="-8"
     inkscape:window-maximized="1" />
  <metadata
     id="metadata3533">
    <rdf:RDF>
      <cc:Work
         rdf:about="">
        <dc:format>image/svg+xml</dc:format>
        <dc:type
           rdf:resource="http://purl.org/dc/dcmitype/StillImage" />
        <dc:title></dc:title>
      </cc:Work>
    </rdf:RDF>
  </metadata>
  <g
     inkscape:label="Layer 1"
     inkscape:groupmode="layer"
     id="layer1"
     transform="translate(-258.41588,-242.42087)">
    <g
       id="g4333"
       transform="matrix(0.96871236,0,0,0.96871236,9.5137955,8.6562417)">
      <path
         d="m 307.58829,270.99596 c 0.15005,-5.57905 3.1322,-8.84953 7.82751,-8.84953 4.68328,0 7.65917,3.27048 7.81548,8.84953 l -15.64299,0 z m 24.48051,6.46882 0,-3.93179 c 0,-9.67918 -5.89168,-18.58282 -16.5027,-18.50467 -10.99579,0 -17.57884,8.12209 -17.57884,20.89741 0,12.79936 6.58305,20.95753 17.10991,20.95753 7.82149,0 13.25626,-2.48292 16.97163,-8.23031 l -6.97983,-4.35262 c -2.41078,2.79553 -4.52096,4.81554 -9.05996,4.81554 -4.52697,0 -8.29043,-3.27048 -8.44072,-11.65109 l 24.48051,0 z"
         style="fill:#000000;fill-opacity:1;fill-rule:nonzero;stroke:none"
         id="path170"
         inkscape:connector-curvature="0" />
      <path
         d="m 388.90961,302.71664 c 1.47893,0.31262 2.64524,0.31262 4.04,0.31262 3.33661,0 5.20632,-0.93184 6.37263,-3.18631 0.92583,-1.93584 1.55107,-3.10215 1.55107,-4.73739 0,-1.47292 -0.77553,-3.18631 -1.23244,-4.81554 l -10.80942,-34.50237 9.71525,0 6.68525,24.85926 0.15006,0 6.9137,-24.85926 9.63709,0 -12.75126,40.48422 c -4.26846,11.5549 -7.68323,14.63901 -15.60693,14.63901 -2.33262,0 -3.49893,-0.16208 -4.66524,-0.31262 l 0,-7.88162 z"
         style="fill:#000000;fill-opacity:1;fill-rule:nonzero;stroke:none"
         id="path174"
         inkscape:connector-curvature="0" />
      <path
         d="m 338.95061,287.5534 c 0,5.7534 2.78953,9.33048 9.90763,9.33048 2.63923,0 4.97185,-0.31839 7.6171,-0.61922 l 0,-7.92972 c -1.39477,0.31888 -2.95185,0.78155 -4.43078,0.78155 -2.41078,0 -3.49293,-0.63125 -3.49293,-2.80155 l 0,-22.77313 18.04176,0 0,24.01159 c 0,5.7534 2.78952,9.33048 9.91364,9.33048 2.63923,0 4.97786,-0.31839 7.62311,-0.61922 l 0,-7.92972 c -1.40679,0.31888 -2.95185,0.78155 -4.44281,0.78155 -2.40476,0 -3.4809,-0.62524 -3.4809,-2.80155 l 0,-22.77313 7.92371,0 0,-7.75536 -7.92371,0 0,-13.36449 -9.61304,0 0,13.36449 -18.04176,0 0,-13.36449 -9.60102,0 0,45.13144 z"
         style="fill:#000000;fill-opacity:1;fill-rule:nonzero;stroke:none"
         id="path178"
         inkscape:connector-curvature="0" />
      <path
         d="m 434.25626,296.0843 -4.65923,0 0,-40.36398 4.65923,0 0,40.36398 z"
         style="fill:#000000;fill-opacity:1;fill-rule:nonzero;stroke:none"
         id="path182"
         inkscape:connector-curvature="0" />
      <path
         id="path184"
         style="fill:#000000;fill-opacity:1;fill-rule:nonzero;stroke:none"
         d="m 429.59886,242.57164 4.65923,0 0,6.84155 -4.65923,0 0,-6.84155 z"
         inkscape:connector-curvature="0" />
      <path
         d="m 444.4038,296.0843 0,-40.36398 4.65322,0 0,6.06602 c 4.13018,-4.34662 7.1662,-6.87162 13.46668,-6.87162 4.50293,0 8.62109,2.84363 9.79341,7.34055 3.65524,-4.27447 7.53293,-7.34055 13.38252,-7.34055 7.07001,0 10.6471,3.84161 10.6471,10.91763 l 0,30.25195 -4.67126,0 0,-30.72689 c 0,-4.50292 -2.48292,-6.7634 -6.98584,-6.7634 -3.5831,0 -9.50484,3.81155 -11.99377,7.71328 l 0,29.77701 -4.65322,0 0,-30.72689 c 0,-4.50292 -2.48893,-6.7634 -7.0159,-6.7634 -3.57108,0 -9.48079,3.81155 -11.96972,7.71328 l 0,29.77701 -4.65322,0 z"
         style="fill:#000000;fill-opacity:1;fill-rule:nonzero;stroke:none"
         id="path196"
         inkscape:connector-curvature="0" />
      <path
         d="m 529.62988,286.51752 c -4.05203,4.12417 -9.4387,6.67923 -13.79133,6.67923 -4.22036,0 -7.25037,-2.4769 -7.25037,-6.90167 0,-5.12816 2.48292,-8.9337 21.0417,-12.97371 l 0,13.19615 z m 5.28447,9.56495 c -0.4747,-2.68732 -0.62524,-5.31453 -0.62524,-7.34656 l 0,-21.15592 c 0,-8.9818 -4.35262,-12.6671 -13.55085,-12.6671 -6.54096,0 -11.53686,2.61518 -15.0358,9.16817 l 3.10215,1.86369 c 2.96388,-4.68328 6.95579,-7.34656 11.77133,-7.34656 6.94376,0 9.2884,2.73542 9.2884,8.12811 l 0,2.80155 c -16.91752,3.7334 -25.94741,5.75942 -25.94741,16.79128 0,6.72733 4.82155,10.57495 11.13406,10.57495 6.23435,0 9.89561,-1.85167 14.72919,-5.63917 l 0.62524,4.82756 4.50893,0 z"
         style="fill:#000000;fill-opacity:1;fill-rule:nonzero;stroke:none"
         id="path200"
         inkscape:connector-curvature="0" />
      <path
         d="m 586.01561,272.35528 c 0.0842,-5.39269 3.57709,-13.83341 11.82543,-13.75526 7.064,0.0784 10.71323,5.39269 11.64508,13.75526 l -23.47051,0 z m 28.14177,3.67929 c 0,-12.5168 -5.21233,-21.11985 -16.17205,-21.11985 -10.25031,0 -16.62895,8.45275 -16.62895,20.96955 0,14.2783 6.67322,21.01164 17.2602,21.01164 7.68924,0 11.65109,-2.69334 15.9977,-9.85353 l -3.79352,-2.03202 c -4.05202,6.39667 -6.6131,8.18822 -11.81942,8.18822 -9.17418,0 -12.98573,-7.94775 -12.98573,-17.16401 l 28.14177,0 z"
         style="fill:#000000;fill-opacity:1;fill-rule:nonzero;stroke:none"
         id="path204"
         inkscape:connector-curvature="0" />
      <path
         d="m 623.01773,286.34678 c 3.82358,5.45281 7.25037,6.85358 12.54085,6.85358 5.1462,0 9.03591,-3.34262 9.03591,-7.7193 0,-11.77132 -23.8192,-5.13417 -23.8192,-19.55675 0,-7.63513 5.99388,-11.01382 12.83543,-11.01382 6.77543,0.005 11.06192,2.62119 13.92961,7.27441 l -3.56507,2.49495 c -2.72941,-3.73941 -5.69929,-6.08406 -10.52085,-6.08406 -4.51494,0 -8.0259,2.18232 -8.0259,7.10007 0,9.89561 23.83122,4.04602 23.83122,19.7852 0,7.2624 -6.69727,11.41663 -14.01376,11.41663 -6.22835,0 -11.83746,-2.46489 -15.63699,-8.13412 l 3.40875,-2.41679 z"
         style="fill:#000000;fill-opacity:1;fill-rule:nonzero;stroke:none"
         id="path208"
         inkscape:connector-curvature="0" />
      <path
         d="m 282.61182,268.9964 c 0,3.73941 -2.95786,6.68525 -6.60709,6.68525 -4.11215,0 -6.97984,-2.94584 -6.97984,-6.68525 0,-3.72137 2.86769,-6.69126 6.97984,-6.69126 3.64923,0 6.60709,2.96989 6.60709,6.69126 m -23.8192,29.56058 c -0.19815,0.63726 -0.42709,1.68934 -0.36697,2.93381 0.30685,6.3606 7.08805,9.36656 17.93955,9.36656 12.87151,0 18.69104,-6.21031 18.69104,-11.9577 0,-16.14198 -26.53659,-7.28042 -26.53659,-13.80335 0,-2.34464 3.33661,-2.49494 7.52091,-2.49494 10.11805,0 15.22817,-5.42275 15.22817,-13.05186 0,-3.11418 -0.92583,-5.4468 -2.16429,-7.16019 1.46691,-0.93786 3.96185,-0.93786 6.2043,-0.93786 l 0,-6.46882 c -4.58108,-0.15631 -7.61108,1.07613 -9.46877,3.55304 -2.4769,-2.16429 -6.51691,-3.55304 -9.93168,-3.55304 -10.49078,0 -15.91954,6.96781 -15.91954,14.04383 0,4.89971 2.63923,7.99584 5.98185,10.70722 -1.79756,0.53506 -6.29447,3.48691 -6.29447,7.36459 0,5.25441 7.08203,7.28644 15.94359,7.83352 7.19626,0.45066 10.71323,2.26649 10.71323,5.05602 0,1.8156 -2.23042,4.33459 -8.41668,4.50894 -10.03989,0.27654 -11.12805,-2.69935 -10.49079,-5.77745 l -8.6331,-0.16208 z"
         style="fill:#000000;fill-opacity:1;fill-rule:nonzero;stroke:none"
         id="path212"
         inkscape:connector-curvature="0" />
      <path
         d="m 559.15198,293.11259 c 12.08996,0 14.71716,3.25845 14.71716,6.58304 0,4.19632 -4.3406,6.89567 -14.41055,6.89567 -8.36859,0 -12.24026,-2.69935 -12.24026,-6.66722 0,-3.47488 2.78953,-6.81149 11.93365,-6.81149 m 19.13592,-38.87904 c -3.17429,0 -6.12614,1.23845 -8.44073,3.56506 -2.56708,-1.7134 -5.5009,-2.79554 -9.37257,-2.79554 -9.76335,0 -15.96764,5.65721 -15.96764,14.48871 0,4.17828 2.17631,8.05596 5.81953,10.53287 -2.94584,0.62524 -6.04197,3.40275 -6.04197,6.82352 0,3.40275 2.39875,4.64721 5.34459,5.26043 l 0,0.15006 c -5.66322,2.09815 -7.05799,5.05 -7.05799,8.51888 0,4.80953 3.72138,9.53489 17.59086,9.53489 13.85746,0 18.36639,-5.03197 18.36639,-10.91763 0,-6.59507 -5.05,-10.46674 -17.13395,-10.46674 -10.91162,0 -12.46269,-1.1603 -12.46269,-3.47489 0,-1.47893 1.15428,-2.94584 3.70935,-3.8837 2.01399,0.69137 3.95584,1.24447 6.5109,1.24447 8.51888,0 15.56484,-4.17828 15.56484,-14.09794 0,-3.87167 -1.07613,-6.27042 -2.85566,-8.44072 1.61721,-1.62322 4.32858,-1.8637 6.42674,-1.8637 l 0,-4.17827 z m -29.12772,14.79531 c 0,-6.27643 3.94983,-10.31043 10.46073,-10.31043 6.50489,0 10.4487,3.25846 10.4487,10.31043 0,6.96781 -3.94381,10.06996 -10.4487,10.06996 -5.66322,0 -10.46073,-3.10215 -10.46073,-10.06996"
         style="fill:#000000;fill-opacity:1;fill-rule:nonzero;stroke:none"
         id="path216"
         inkscape:connector-curvature="0" />
      <path
         d="m 658.41588,252.04944 c 0,2.60917 -2.12221,4.7434 -4.73739,4.7434 -2.63322,0 -4.74941,-2.13423 -4.74941,-4.73739 0,-2.61518 2.11619,-4.75542 4.74941,-4.75542 2.61518,0 4.73739,2.13423 4.73739,4.74941 m -0.76351,0 c 0,-2.29655 -1.70138,-4.11215 -3.97388,-4.11215 -2.28453,0.005 -3.99191,1.82161 -3.99191,4.11816 0,2.28453 1.70738,4.10013 3.99191,4.10013 2.2725,-0.005 3.97388,-1.82161 3.97388,-4.10614 m -4.97787,2.8256 -0.76952,0 0.005,-5.64519 2.15827,0 c 1.2625,0 1.82762,0.5531 1.82762,1.5631 0,0.99798 -0.64928,1.43084 -1.29857,1.57512 l 1.56911,2.50697 -0.87173,0 -1.53304,-2.50697 -1.08214,0 -0.005,2.50697 z m 0.88375,-3.15024 c 0.74548,0 1.57512,0.0433 1.57512,-0.94387 0,-0.79959 -0.64327,-0.91381 -1.23244,-0.91381 l -1.22643,0 0,1.85768 0.88375,0 z"
         style="fill:#000000;fill-opacity:1;fill-rule:nonzero;stroke:none"
         id="path220"
         inkscape:connector-curvature="0" />
    </g>
  </g>
</svg>
